<svg width="27" height="26" viewBox="0 0 27 26" fill="none" xmlns="http://www.w3.org/2000/svg">
<path d="M25.8889 5C25.8889 2.79086 24.098 1 21.8889 1H5C2.79086 1 1 2.79086 1 5H25.8889Z" fill="#111111"/>
<path d="M1 5V5C1 2.79086 2.79086 1 5 1H21.8889C24.098 1 25.8889 2.79086 25.8889 5V5M1 5V21C1 23.2091 2.79086 25 5 25H21.8889C24.098 25 25.8889 23.2091 25.8889 21V5M1 5H25.8889" stroke="#111111" stroke-width="2"/>
<path d="M1 10.8488H25.8889M1 18.2621H25.8889M9.14222 24.5554V5.44434M18.1911 24.5554V5.44434" stroke="#111111"/>
</svg>
