<svg width="32" height="32" viewBox="0 0 32 32" fill="none" xmlns="http://www.w3.org/2000/svg">
<path d="M30 10H20.5H11.2529H2.00572M30.019 2H15.5M2.00572 2H8.20856M2.00012 18H8.20856M2 26H8.39321" stroke="white" stroke-width="2.5" stroke-linecap="round"/>
<path fill-rule="evenodd" clip-rule="evenodd" d="M21.7 31.4C26.5049 31.4 30.4 27.5049 30.4 22.7C30.4 17.8951 26.5049 14 21.7 14C16.8951 14 13 17.8951 13 22.7C13 27.5049 16.8951 31.4 21.7 31.4ZM20.9603 16.9C20.721 16.9 20.4916 16.9951 20.3224 17.1643C20.1532 17.3335 20.0582 17.5629 20.0582 17.8022V20.0687C20.0582 20.621 19.6104 21.0687 19.0582 21.0687H16.8017C16.5624 21.0687 16.333 21.1638 16.1638 21.333C15.9946 21.5022 15.8995 21.7316 15.8995 21.9709V23.4292C15.8995 23.9264 16.3045 24.3313 16.8017 24.3313H19.0582C19.6104 24.3313 20.0582 24.7791 20.0582 25.3313V27.5979C20.0582 28.0951 20.4631 28.5 20.9603 28.5H22.4388C22.678 28.5 22.9075 28.405 23.0767 28.2358C23.2459 28.0666 23.3409 27.8371 23.3409 27.5979V25.3271C23.3409 24.7749 23.7886 24.3271 24.3409 24.3271H26.5974C26.8367 24.3271 27.0661 24.2321 27.2353 24.0629C27.4045 23.8937 27.4995 23.6643 27.4995 23.425V21.9709C27.499 21.732 27.4037 21.5031 27.2346 21.3343C27.0654 21.1656 26.8363 21.0708 26.5974 21.0708H24.3409C23.7886 21.0708 23.3409 20.6231 23.3409 20.0708V17.8001C23.3404 17.5612 23.2451 17.3323 23.076 17.1635C22.9068 16.9948 22.6777 16.9 22.4388 16.9H20.9603Z" fill="white"/>
</svg>
