<svg width="32" height="32" viewBox="0 0 32 32" fill="none" xmlns="http://www.w3.org/2000/svg">
<path d="M8.22266 12.3708C8.22266 11.2705 8.65975 10.2153 9.43777 9.43728C10.2158 8.65926 11.271 8.22217 12.3713 8.22217H25.8518C26.3966 8.22217 26.9361 8.32948 27.4394 8.53797C27.9427 8.74646 28.4001 9.05204 28.7853 9.43728C29.1706 9.82252 29.4761 10.2799 29.6846 10.7832C29.8931 11.2865 30.0004 11.826 30.0004 12.3708V25.8513C30.0004 26.3961 29.8931 26.9356 29.6846 27.4389C29.4761 27.9422 29.1706 28.3996 28.7853 28.7848C28.4001 29.1701 27.9427 29.4757 27.4394 29.6841C26.9361 29.8926 26.3966 29.9999 25.8518 29.9999H12.3713C11.8265 29.9999 11.287 29.8926 10.7837 29.6841C10.2804 29.4757 9.82301 29.1701 9.43777 28.7848C9.05253 28.3996 8.74694 27.9422 8.53845 27.4389C8.32996 26.9356 8.22266 26.3961 8.22266 25.8513V12.3708Z" stroke="white" stroke-width="2.5" stroke-linecap="round" stroke-linejoin="round"/>
<path d="M3.57422 23.3687C3.09667 23.0973 2.69945 22.7044 2.42296 22.2298C2.14646 21.7553 2.00053 21.2159 2 20.6667V5.11111C2 3.4 3.4 2 5.11111 2H20.6667C21.8333 2 22.468 2.59889 23 3.55556" stroke="white" stroke-width="2.5" stroke-linecap="round" stroke-linejoin="round"/>
</svg>
