<svg width="32" height="32" viewBox="0 0 32 32" fill="none" xmlns="http://www.w3.org/2000/svg">
<path fill-rule="evenodd" clip-rule="evenodd" d="M16 19.6842C13.0526 19.6842 8.87719 23.1228 7.1579 24.8421C8.87719 23.1228 12.3158 18.9474 12.3158 16C12.3158 13.0526 8.87719 8.87719 7.1579 7.1579C8.87719 8.87719 13.0526 12.3158 16 12.3158C18.9474 12.3158 23.1228 8.87719 24.8421 7.1579C23.1228 8.87719 19.6842 13.0526 19.6842 16C19.6842 18.9474 23.1228 23.1228 24.8421 24.8421C23.1228 23.1228 18.9474 19.6842 16 19.6842ZM16.0999 19.5C18.0329 19.5 19.5999 17.933 19.5999 16C19.5999 14.067 18.0329 12.5 16.0999 12.5C14.1669 12.5 12.5999 14.067 12.5999 16C12.5999 17.933 14.1669 19.5 16.0999 19.5Z" fill="white"/>
<path d="M24.8421 12.3158C25.8622 12.3158 26.8595 12.0133 27.7077 11.4465C28.5559 10.8798 29.217 10.0742 29.6074 9.13174C29.9978 8.18925 30.0999 7.15217 29.9009 6.15164C29.7019 5.15111 29.2106 4.23206 28.4893 3.51071C27.7679 2.78937 26.8489 2.29813 25.8484 2.09911C24.8478 1.90009 23.8107 2.00223 22.8683 2.39262C21.9258 2.78301 21.1202 3.44411 20.5535 4.29232C19.9867 5.14054 19.6842 6.13776 19.6842 7.1579M24.8421 19.6842C25.8622 19.6842 26.8595 19.9867 27.7077 20.5535C28.5559 21.1202 29.217 21.9258 29.6074 22.8683C29.9978 23.8107 30.0999 24.8478 29.9009 25.8484C29.7019 26.8489 29.2106 27.7679 28.4893 28.4893C27.7679 29.2106 26.8489 29.7019 25.8484 29.9009C24.8478 30.0999 23.8107 29.9978 22.8683 29.6074C21.9258 29.217 21.1202 28.5559 20.5535 27.7077C19.9867 26.8595 19.6842 25.8622 19.6842 24.8421M7.1579 19.6842C6.13776 19.6842 5.14054 19.9867 4.29232 20.5535C3.44411 21.1202 2.78301 21.9258 2.39262 22.8683C2.00223 23.8107 1.90009 24.8478 2.09911 25.8484C2.29813 26.8489 2.78937 27.7679 3.51071 28.4893C4.23206 29.2106 5.15111 29.7019 6.15164 29.9009C7.15217 30.0999 8.18925 29.9978 9.13174 29.6074C10.0742 29.217 10.8798 28.5559 11.4465 27.7077C12.0133 26.8595 12.3158 25.8622 12.3158 24.8421M7.1579 12.3158C6.13776 12.3158 5.14054 12.0133 4.29232 11.4465C3.44411 10.8798 2.78301 10.0742 2.39262 9.13174C2.00223 8.18925 1.90009 7.15217 2.09911 6.15164C2.29813 5.15111 2.78937 4.23206 3.51071 3.51071C4.23206 2.78937 5.15111 2.29813 6.15164 2.09911C7.15217 1.90009 8.18925 2.00223 9.13174 2.39262C10.0742 2.78301 10.8798 3.44411 11.4465 4.29232C12.0133 5.14054 12.3158 6.13776 12.3158 7.1579M7.1579 24.8421C8.87719 23.1228 13.0526 19.6842 16 19.6842C18.9474 19.6842 23.1228 23.1228 24.8421 24.8421C23.1228 23.1228 19.6842 18.9474 19.6842 16C19.6842 13.0526 23.1228 8.87719 24.8421 7.1579C23.1228 8.87719 18.9474 12.3158 16 12.3158C13.0526 12.3158 8.87719 8.87719 7.1579 7.1579C8.87719 8.87719 12.3158 13.0526 12.3158 16C12.3158 18.9474 8.87719 23.1228 7.1579 24.8421ZM19.5999 16C19.5999 17.933 18.0329 19.5 16.0999 19.5C14.1669 19.5 12.5999 17.933 12.5999 16C12.5999 14.067 14.1669 12.5 16.0999 12.5C18.0329 12.5 19.5999 14.067 19.5999 16Z" stroke="white" stroke-width="2.5" stroke-linecap="round" stroke-linejoin="round"/>
</svg>
