<svg width="1040" height="1507" viewBox="0 0 1040 1507" fill="none" xmlns="http://www.w3.org/2000/svg">
<path fill-rule="evenodd" clip-rule="evenodd" d="M218.047 390.747L336.547 459.406C338.801 456.888 341.884 454.514 346.047 452.614L919.047 255.314L1001.05 227.079C1013.71 223.004 1039.05 223.054 1039.05 255.854V225.354C1039.05 214.954 1032.38 210.315 1029.05 209.295L874.484 146.437L247.972 362.163C235.041 367.62 224.657 377.952 218.047 390.747Z" fill="#888888"/>
<path d="M209.547 1347.85C209.547 1423.83 261.05 1487.77 331.047 1506.68V1091.83V975.609V909.783V785.562V474.935C330.584 471.567 331.438 465.115 336.547 459.406L218.047 390.747C212.906 400.699 210.047 412.14 210.047 423.935V469.854L209.547 1347.85Z" fill="#111111"/>
<path fill-rule="evenodd" clip-rule="evenodd" d="M22.2577 277.854L132.547 341.244C141.997 324.42 157.564 308.021 182.294 297.854L737.047 106.838L838.047 72.0607C844.38 70.1586 857.047 71.5544 857.047 92.3544V72.0607C857.047 66.5602 854.714 64.457 853.547 64.093L696.179 0L109.047 202.166C65.7639 220.561 38.6324 249.121 22.2577 277.854Z" fill="#888888"/>
<path d="M0.0469081 1285.43C0.0469081 1361.05 50.5603 1424.24 120.047 1443.48L119.547 391.354C119.03 379.621 121.92 360.164 132.547 341.244L22.2577 277.854C4.58376 308.868 -0.558713 340.082 0.0469081 358.935V360.607V1285.43Z" fill="#111111"/>
<path d="M1039.05 255.854C1039.05 223.054 1013.71 223.004 1001.05 227.079L919.047 255.314V368.854L1039.05 255.854Z" fill="#111111"/>
<path fill-rule="evenodd" clip-rule="evenodd" d="M331.047 975.609V1091.83L924.547 887.472C965.194 873.476 992.307 848.639 1009.9 821.854L910.955 758.354C903.874 770.466 891.326 782.69 870.168 789.975L331.047 975.609Z" fill="#888888"/>
<path d="M1039.05 728.935V255.854L919.047 368.854V674.354V728.854C919.408 735.856 917.56 747.056 910.955 758.354L1009.9 821.854C1032.12 788.015 1039.14 751.065 1039.05 728.935Z" fill="#4D4D4D"/>
<path fill-rule="evenodd" clip-rule="evenodd" d="M391.5 764.746V888.967L821.047 741.062C833.845 736.655 842.378 727.95 847.909 718.354L733.443 644.854C731.331 647.357 728.753 648.721 727.047 649.208L391.5 764.746Z" fill="#888888"/>
<path d="M838.047 72.0607L737.047 106.838V155L797.047 133.75L857.047 92.3544C857.047 71.5544 844.38 70.1586 838.047 72.0607Z" fill="#111111"/>
<path d="M857.047 112.5V92.3544L797.047 133.75L857.047 112.5Z" fill="#4D4D4D"/>
<path d="M737.047 368.854V433.854V448L857.047 326L737.047 368.854Z" fill="#111111"/>
<path d="M847.909 718.354C854.824 706.357 857.047 692.969 857.047 684.854V326L737.047 448V634.354C737.047 639.042 735.457 642.466 733.443 644.854L847.909 718.354Z" fill="#4D4D4D"/>
</svg>
