<svg width="1702" height="1702" viewBox="0 0 1702 1702" fill="none" xmlns="http://www.w3.org/2000/svg">
<rect width="1702" height="1702" rx="222" fill="white"/>
<path fill-rule="evenodd" clip-rule="evenodd" d="M585.435 531.668L690.016 592.23C692.005 590.009 694.725 587.915 698.4 586.239L1204.09 412.206L1276.46 387.301C1287.64 383.706 1310 383.75 1310 412.682V385.779C1310 376.606 1304.12 372.513 1301.17 371.614L1164.77 316.169L611.845 506.454C600.433 511.268 591.269 520.382 585.435 531.668Z" fill="#888888"/>
<path d="M577.933 1375.91C577.933 1442.92 623.387 1499.32 685.162 1516V1150.07V1047.56V989.495V879.923V605.927C684.753 602.957 685.507 597.265 690.016 592.23L585.435 531.668C580.898 540.446 578.375 550.537 578.375 560.942V601.446L577.933 1375.91Z" fill="#111111"/>
<path fill-rule="evenodd" clip-rule="evenodd" d="M412.643 432.088L509.978 488.002C518.317 473.162 532.056 458.697 553.882 449.729L1043.47 281.239L1132.61 250.563C1138.2 248.885 1149.38 250.116 1149.38 268.463V250.563C1149.38 245.711 1147.32 243.856 1146.29 243.535L1007.41 187L489.238 365.325C451.039 381.551 427.095 406.743 412.643 432.088Z" fill="#888888"/>
<path d="M393.041 1320.85C393.041 1387.54 437.621 1443.29 498.946 1460.26L498.505 532.203C498.048 521.854 500.599 504.691 509.978 488.002L412.643 432.088C397.045 459.444 392.507 486.978 393.041 503.607V505.082V1320.85Z" fill="#111111"/>
<path d="M1310 412.682C1310 383.75 1287.64 383.706 1276.46 387.301L1204.09 412.206V512.357L1310 412.682Z" fill="#111111"/>
<path fill-rule="evenodd" clip-rule="evenodd" d="M685.162 1047.56V1150.07L1208.95 969.815C1244.82 957.47 1268.75 935.562 1284.27 911.936L1196.95 855.924C1190.7 866.607 1179.63 877.39 1160.96 883.816L685.162 1047.56Z" fill="#888888"/>
<path d="M1310 829.974V412.682L1204.09 512.357V781.83V829.903C1204.41 836.079 1202.78 845.958 1196.95 855.924L1284.27 911.936C1303.88 882.087 1310.08 849.494 1310 829.974Z" fill="#4D4D4D"/>
<path fill-rule="evenodd" clip-rule="evenodd" d="M738.514 861.562V971.134L1117.61 840.671C1128.9 836.784 1136.43 829.105 1141.31 820.641L1040.29 755.809C1038.43 758.016 1036.15 759.22 1034.65 759.649L738.514 861.562Z" fill="#888888"/>
<path d="M1132.61 250.563L1043.47 281.239V323.721L1096.42 304.977L1149.38 268.463C1149.38 250.116 1138.2 248.885 1132.61 250.563Z" fill="#111111"/>
<path d="M1149.38 286.233V268.463L1096.42 304.977L1149.38 286.233Z" fill="#4D4D4D"/>
<path d="M1043.47 512.357V569.691V582.169L1149.38 474.556L1043.47 512.357Z" fill="#111111"/>
<path d="M1141.31 820.641C1147.42 810.059 1149.38 798.249 1149.38 791.092V474.556L1043.47 582.169V746.547C1043.47 750.682 1042.07 753.703 1040.29 755.809L1141.31 820.641Z" fill="#4D4D4D"/>
</svg>
