<svg width="28" height="28" viewBox="0 0 28 28" fill="none" xmlns="http://www.w3.org/2000/svg">
<path fill-rule="evenodd" clip-rule="evenodd" d="M14 28C21.732 28 28 21.732 28 14C28 6.26801 21.732 0 14 0C6.26801 0 0 6.26801 0 14C0 21.732 6.26801 28 14 28ZM21.5401 7.69338C21.923 7.11896 21.7678 6.34288 21.1934 5.95994C20.619 5.577 19.8429 5.73221 19.4599 6.30662L11.5244 18.21L9.05458 14.3289C8.68394 13.7465 7.91133 13.5748 7.32891 13.9454C6.74648 14.3161 6.57479 15.0887 6.94542 15.6711L9.62125 19.876C10.4943 21.2479 12.4896 21.2691 13.3916 19.9161L21.5401 7.69338Z" fill="#22C55E"/>
</svg>
